<?xml version="1.0" encoding="utf-8"?>
<!-- Generator: Adobe Illustrator 28.0.0, SVG Export Plug-In . SVG Version: 6.00 Build 0)  -->
<svg version="1.0" id="katman_1" xmlns="http://www.w3.org/2000/svg" xmlns:xlink="http://www.w3.org/1999/xlink" x="0px" y="0px"
	 viewBox="0 0 629.34 605.67" style="enable-background:new 0 0 629.34 605.67;" xml:space="preserve">
<style type="text/css">
	.st0{fill:#171914;}
	.st1{fill:#FEFEFD;}
	.st2{fill:#D1D3CE;}
</style>
<path class="st0" d="M398.82,77.53c-5.59,4.54-11.61,7.66-18.08,9.37c-1.29,0.33-1.27,0.58,0.05,0.75
	c3.81,0.48,7.68,1.25,11.61,2.32c3.69,1,5.74,3.6,9.73,4.04c5.59,0.6,9.77,1.37,12.53,2.31c14.27,4.87,27.86,11.21,40.77,19.02
	c12.25,7.42,26.83,17.27,37.68,27.75c0.34,0.33,0.29,0.59-0.14,0.78c-6.24,2.66-16.22,9.32-22.53,15.57
	c-0.28,0.28-0.68,0.37-1.05,0.25c-15.54-5.11-31.12-5.2-46.75-0.26c-0.52,0.16-1.09,0.04-1.49-0.33c-3.63-3.31-7.55-6.24-11.75-8.79
	c-0.55-0.33-0.9-0.92-0.94-1.56c-0.61-9.72-5.17-17.74-10.53-25.64c-0.19-0.27-0.11-0.42,0.22-0.44c4.35-0.23,8.1-1.83,11.26-4.8
	c4.67-4.4,1.15-8.96-2.08-12.47c-3.32-3.61-6.97-7.04-10.96-10.29c-0.71-0.59-1.64-0.84-2.56-0.71c-4.1,0.59-8.41,1.12-12.92,1.61
	c-0.41,0.04-0.71,0.14-0.89,0.29c-0.3,0.25-0.26,0.42,0.11,0.53c7.37,2.17,13.31,6.35,17.82,12.55c1.51,2.07,1.13,2.52-1.14,1.33
	c-7.29-3.82-15.56-5.41-24.79-4.76c-0.07,0.01-0.12,0.03-0.15,0.06c-0.05,0.05-0.06,0.14-0.03,0.26c0.02,0.1,0.08,0.16,0.19,0.18
	c6.97,0.99,15.77,2.76,20.55,7.23c0.18,0.17,0.15,0.24-0.1,0.23l-19.28-0.7c-0.3-0.01-0.33,0.07-0.08,0.25
	c10.09,7.1,18.06,18.29,22.38,29.81c0.14,0.38-0.22,0.76-0.6,0.63c-11.84-3.83-23.91-6.68-36.21-8.54
	c-1.23-0.19-1.29,0.01-0.18,0.58c6.19,3.18,10.6,5.41,14.79,11.26c0.23,0.33,0.23,0.65,0.02,0.98c-3.03,4.65-4.58,12.95-5.18,19.31
	c-1.25,13.34-0.67,26.63,1.72,39.87c0.19,1.05,0.15,1.81-0.11,2.3c-8.77,16.39-9.34,33.53-5.18,51.36c0.19,0.84,0.59,0.96,1.2,0.35
	l2.79-2.82c0.38-0.39,0.69-0.33,0.93,0.16c3.81,7.94,8.74,15,14.79,21.19c0.18,0.11,0.33,0.23,0.45,0.38
	c0.21,0.25,0.23,0.51,0.06,0.78c-2.2,3.57-4.46,7.09-6.79,10.58c-3.51,5.27-6.16,10.3-7.96,15.1c-0.87,2.31-0.54,2.5,0.99,0.55
	c5.36-6.85,11.6-13.13,18.72-18.84c0.65-0.51,1.2-0.85,1.66-1.01c0.77-0.27,0.96-1.27,0.35-1.81l-7.02-6.2
	c-5.28-6.38-9.02-12.28-11.23-17.69c-6.48-15.92-2.6-36.04,7.67-49.99c0.13-0.18,0.18-0.38,0.13-0.59c-3.44-17-4.09-34.1-1.94-51.29
	c0.33-2.65,1.83-9.03,5.56-8.61c11.88,1.34,25.57,13.29,34.2,21.35c0.53,0.5,1.3,0.64,1.98,0.38c17.02-6.65,33.96-6.53,50.83,0.36
	c0.41,0.16,0.88,0.08,1.2-0.22c8.13-7.58,16.46-15.1,26.67-19.85c5.95-2.77,11.48-3.7,12.97,4.35c3.07,16.67,3.06,33.33-0.04,49.98
	c-0.29,1.57-0.34,2.6,0.67,3.97c10.86,14.76,12.21,35.13,4.42,51.51c-2.42,5.08-6.15,10.58-11.18,16.5
	c-13.58,15.97-31.22,25.24-52.07,27.55c-0.71,0.08-1.29,0.61-1.42,1.31c-0.74,3.83-1.41,8.22-3.82,11.45
	c-0.23,0.3-0.02,0.73,0.36,0.75c7.58,0.33,12.69,8.12,7.96,14.51c-3.11,4.21-7.29,7.87-12.52,10.98c-0.25,0.15-0.51,0.15-0.76,0
	c-6.4-3.8-17.95-13.51-12.65-21.18c2.15-3.11,5.41-4.3,9.77-3.59c0.16,0.03,0.29-0.13,0.24-0.28c-1.51-4.36-2.52-8.84-3.02-13.44
	c-0.04-0.33-0.22-0.5-0.55-0.53c-14.37-1.09-27.02-5.29-38.49-13.35c-0.13-0.09-0.27-0.13-0.43-0.14c-0.09-0.01-0.2-0.03-0.33-0.08
	c-0.23-0.27-0.53-0.43-0.88-0.5c-0.33-0.05-0.62,0.02-0.88,0.23c-6.16,4.83-11.34,10.56-15.55,17.19
	c-12.61,18.03-17.18,37.66-13.71,58.87c1.83,11.2,6.52,22.27,13.6,30.77c1.59,1.9,1.91,1.71,0.96-0.58
	c-3.64-8.76-4.74-17.88-3.3-27.37c0.24-1.56,0.6-1.59,1.07-0.08c3.74,11.88,9.71,22.74,17.9,32.58
	c4.46,5.36,10.01,11.14,16.65,17.33c9.95,9.28,20.15,18.64,30.62,28.07c0.36,0.32,0.9,0.31,1.24-0.03
	c15.07-15.11,32.5-28.82,46.45-44.49c8.78-9.87,15.14-21.23,19.07-34.08c0.21-0.67,0.5-0.7,0.88-0.08c0.15,0.25,0.28,0.74,0.37,1.48
	c0.8,5.96,2.32,17.54-0.15,23.02c-0.83,1.84-0.63,1.96,0.61,0.37c9.64-12.32,14.01-26.87,13.12-43.64
	c-0.61-11.57-2.82-21.48-6.62-29.75c-4.14-8.99-7.64-15.23-10.51-18.71c-3.15-3.82-6.3-7.7-9.46-11.64
	c-0.25-0.31-0.22-0.58,0.1-0.82c3.81-2.91,7.23-6.22,10.25-9.95c0.17-0.21,0.48-0.22,0.66-0.02c29.9,31.93,41.1,77.16,25.12,118.64
	c-0.26,0.67-0.23,1.42,0.09,2.06c5.57,11.26,7.79,25.17,8.89,37.81c0.04,0.43-0.15,0.64-0.58,0.64l-38.61,0.08
	c-0.79,0-1.44,0.29-1.96,0.87l-9.7,10.76c-0.24,0.27-0.05,0.69,0.31,0.69c19.74,0.08,39.56,0.06,59.45-0.06
	c3.35-0.02,5.63,0.28,6.86,0.9c4.47,2.27,3.81,8.08,3.72,13.05c-0.05,30.43-0.05,60.86,0,91.29c0.02,9.05-0.47,15.45-1.48,19.2
	c-4.8,17.93-21.45,27.94-39.86,27.96c-24.76,0.03-49.53,0.04-74.3,0.03l-262.91,0.03c-27.43-0.05-54.86-0.07-82.29-0.08
	c-7.75,0-15.72-1.24-22.4-5.03c-12.83-7.27-19.45-21.04-19-35.68c0.12-3.96,0.18-5.98,0.18-6.06c0.02-32.57,0-65.14-0.05-97.71
	c0-1.05,0.34-2.4,1.03-4.05c1.25-2.47,3.25-3.71,5.99-3.71c46.75,0.04,93.43,0.01,140.06-0.08c0.75-0.01,0.86-0.27,0.31-0.79
	c-3.4-3.27-6.96-6.62-10.68-10.06c-1.34-1.23-2.4-1.84-3.18-1.81c-5.25,0.19-9.09,0.28-11.51,0.27c-43.75-0.11-87.48-0.1-131.2,0.03
	c-0.63,0.25-1.16,0.26-1.59,0.01c-0.31-0.17-0.41-0.43-0.3-0.78l1.28-3.75c1.71-4.1,3.74-8.01,6.11-11.74
	c13.59-21.38,30.36-40.98,46.28-60.66c1.49-1.84,2.83-3.61,4.04-5.32c0.18-0.26,0.59-0.08,0.52,0.23c-1.02,4.73-2.34,9.36-3.95,13.9
	c-0.71,1.99-0.43,2.15,0.86,0.47c5.03-6.58,8.83-14.29,11.4-23.12c3.01-10.37,5.32-20.66,6.91-30.87c0.18-1.13,0.49-1.17,0.92-0.11
	c12.95,31.68,36.17,61.12,60.26,85.24c1.65,1.8,3.37,3.55,5.16,5.26c14.84,14.13,29.8,27.86,43.71,43.03
	c0.52,0.57,1.26,0.89,2.03,0.88l21.31-0.25c0.46-0.01,0.54-0.18,0.23-0.52c-4.94-5.49-9.32-10.75-14.05-17.12
	c-8.39-11.3-18.39-24.22-30-38.76c-10.11-12.67-19.11-27.2-25.58-42.8l-1.9-6.97c-0.53-1.95-0.84-1.92-0.93,0.1
	c-0.44,9.91,0.59,20.27,3.08,31.08c0.91,3.98,1.91,7.08,2.98,9.29c0.05,0.13,0.07,0.25,0.05,0.37c-0.05,0.29-0.2,0.36-0.45,0.2
	c-0.79-0.5-1.84-1.46-3.16-2.89c-9.21-9.89-16.34-20.44-21.37-31.65c-5.71-13.89-9.23-27.94-10.55-42.15
	c-0.23-2.57-0.47-2.57-0.72-0.01c-0.97,10.12-0.74,22.48,1.19,33.02c0.14,0.78-0.04,0.86-0.53,0.24
	c-8.94-11.17-15.27-23.22-19-36.15c-8.33-28.93-7.49-62.62,9.34-88.93c0.36-0.56,0.22-0.77-0.43-0.62c-0.01,0-0.15,0.12-0.4,0.37
	c-9.76,9.49-18.32,19.46-22.51,33.04c-0.01,0.03-0.04,0.05-0.07,0.04l-0.24-0.06c-0.2-0.04-0.28-0.16-0.25-0.36
	c1.46-10.19,3.43-18.88,5.92-26.08c5.63-16.27,15.35-30.3,29.15-42.08c0.85-0.72,1.42-1.22,1.73-1.5c0.89-0.83,0.75-1.09-0.43-0.78
	c-10.95,2.83-22.69,8.02-30.31,16.28c-0.84,0.91-1.2,0.75-1.08-0.49c2.38-25.16,23.19-48.11,44.57-59.82
	c0.97-0.52,2.54-1.11,4.73-1.76c0.16-0.05,0.22-0.15,0.17-0.31l-0.08-0.28c-0.04-0.14-0.18-0.22-0.31-0.19
	c-6.99,1.47-13.85,3.29-20.57,5.47c-6.33,2.04-11.7,4.45-16.98,8.51c-0.49,0.39-0.64,0.28-0.44-0.32
	c4.2-12.2,13.85-28.72,25.5-35.29c0.24-0.13,0.22-0.2-0.05-0.19l-18.96,0.63c-1.13,0.03-1.23-0.27-0.3-0.91
	c5.58-3.86,13.09-5.54,19.74-6.86c0.61-0.12,0.6-0.19-0.02-0.22c-3.57-0.17-7.22-0.13-10.96,0.12c-5.85,0.38-11.73,1.97-17.65,4.77
	c4.54-7.18,12.35-11.12,19.93-13.99c1.28-0.49,1.23-0.72-0.14-0.7c-5.76,0.08-10.73-2.04-16.37-2.81c-0.33-0.05-0.44-0.46-0.19-0.67
	c3.76-3.14,11.57-4.31,16.18-4.96c0.33-0.05,0.36-0.51,0.04-0.6c-6.1-1.65-14.84-5.55-18.75-10.95c-0.16-0.23-0.13-0.43,0.1-0.6
	c0.19-0.14,0.44-0.14,0.63-0.01c1.69,1.19,3.6,1.9,5.73,2.13c4.85,0.55,9.7,0.94,14.57,1.18c0.03,0,0.05-0.01,0.07-0.03
	c0.07-0.08,0.1-0.16,0.11-0.23c0.01-0.07-0.02-0.12-0.09-0.15c-7.77-2.54-16.02-8.12-18.93-15.83c-0.74-1.95-0.33-2.23,1.22-0.84
	c2.22,2,11.45,1.06,15.43,0.81c1.09-0.07,1.2-0.42,0.32-1.07c-5.76-4.21-11.25-8.54-13.99-15.52c-0.14-0.34-0.03-0.54,0.34-0.59
	l0.42-0.07c0.33,0.37,0.83,0.59,1.48,0.67c3.33,0.41,6.7,0.28,10.12-0.39c0.48-0.09,0.54-0.31,0.19-0.65
	c-7.15-6.89-13.64-14.37-19.45-22.43c-0.25-0.35-0.25-0.81-0.01-1.16c2.67-3.9,8.64-5.79,13.08-6.42
	c5.82-0.82,11.23-6.16,16.37-9.54c3.67-2.08,7.83-3.6,12.48-4.56c9.3-1.92,18.38-0.51,26.25,4.95c4.5,3.12,10.54,8.75,12.17,14.19
	c0.28,0.93,0.46,0.92,0.54-0.05c0.47-5.89-0.07-11.68-1.62-17.35c-0.14-0.53-0.01-0.61,0.4-0.25c7.2,6.28,12.79,14.84,13.77,24.53
	c0.08,0.74,0.29,0.78,0.64,0.13c1.74-3.24,1.5-12.28,1.21-15.75c-0.15-1.77,0.15-1.85,0.89-0.23c3.48,7.63,5.49,15.23,4.14,23.69
	c-0.3,1.91-0.12,1.95,0.53,0.14c1.17-3.21,1.84-6.52,2.01-9.94c0.05-1.06,0.37-1.14,0.94-0.25c3.38,5.25,4.84,9.31,4.88,15.73
	c0.01,2.47,0.28,2.5,0.81,0.07c0.21-0.95,0.39-2.38,0.56-4.27c0.16-1.81,0.76-1.98,1.81-0.49c3.13,4.42,5.16,9.3,6.1,14.64
	c0.09,0.53,0.4,0.73,0.92,0.59c9.82-2.63,19.6-2.53,29.33,0.32c0.39,0.12,0.8-0.13,0.88-0.53c1.03-5.23,2.98-10.09,5.85-14.58
	c0.65-1.01,1.09-0.93,1.34,0.24l1.13,5.34c0.01,0.07,0.1,0.11,0.16,0.06c0.09-0.06,0.17-0.1,0.24-0.12
	c0.06-0.02,0.09-0.06,0.08-0.12c-0.09-4.29,0.18-7.09,0.81-8.4c1.33-2.73,2.35-5.13,3.06-7.19c0.73-2.13,1.2-2.07,1.42,0.17
	c0.29,3.02,1.03,5.93,2.2,8.72c0.01,0.03,0.04,0.05,0.07,0.04l0.25-0.06c0.04-0.01,0.06-0.03,0.05-0.08
	c-1.51-9.27,1.23-15.08,3.59-22.76c0.82-2.67,1.21-2.61,1.16,0.19c-0.08,4.78-0.66,10.39,1.72,15.17c0.1,0.21,0.15,0.2,0.16-0.03
	c0.33-9.36,6-18.55,13.33-24.68c0.73-0.61,0.99-0.45,0.8,0.47c-1.22,5.87-1.94,11.81-2.15,17.82c-0.03,0.91,0.13,0.94,0.46,0.09
	c1.64-4.08,4.71-7.55,7.9-10.87c9.65-10.01,24.22-12.14,37.22-7.91c5.81,1.89,11.66,5.36,17.55,10.39c2.44,2.09,8.78,2.42,11,3.06
	c3.26,0.94,6.2,2.51,8.82,4.72c0.59,0.5,0.6,1.41,0.02,1.92c-0.92,0.81-1.75,1.7-2.48,2.69c-5.29,7.16-11.06,13.87-17.33,20.12
	c-0.18,0.18-0.08,0.49,0.17,0.53c4.15,0.64,8.3,0.77,12.46,0.39c0.45-0.04,0.75,0.44,0.53,0.83c-3.49,6.06-8.2,10.96-14.14,14.7
	c-1.08,0.68-0.98,1.03,0.3,1.05c3.65,0.06,12.4,0.97,15.48-0.93c1.51-0.92,1.86-0.59,1.06,0.98c-3.93,7.68-12.4,12.74-20.12,15.45
	c-1.48,0.52-1.44,0.76,0.13,0.72c4.46-0.1,9.15-0.38,14.06-0.84c2.12-0.2,4.04-0.77,5.76-1.72c0.7-0.39,0.94-0.19,0.72,0.58
	C399.58,77,399.31,77.24,398.82,77.53z M204.55,51.41c-0.01-0.47-0.01-0.94-0.02-1.41c-0.01-0.36,0.07-0.59,0.23-0.69
	c0.2-0.13,0.49-0.13,0.87,0c4.66,3.5,9.81,7.32,13.29,12.02c0.7,0.94,0.89,0.85,0.57-0.28c-2.89-10.19-12-22.11-23.92-19.19
	c-3.33,0.82-5.82,2.99-8.76,5.16c-6.1,4.5-13.03,6.53-20.8,6.08c-0.35-0.02-0.4,0.09-0.16,0.34c9.64,9.81,15.95,21.54,23.92,32.47
	c0.57,0.79,0.72,0.72,0.43-0.21c-1.59-5.11-2.92-10.46-4-16.06c-0.65-3.36-1.59-6.27-2.81-8.74c-0.65-1.31-0.5-1.41,0.44-0.3
	c3.07,3.64,6.02,6.98,9.84,10.24c2.48,2.12,4.87,4.28,7.16,6.47c0.25,0.24,0.31,0.2,0.18-0.12l-10.13-23.93
	c-0.11-0.26-0.05-0.3,0.16-0.12c6.14,5.1,13.36,9.81,18.83,15.56c0.47,0.49,0.62,0.4,0.47-0.26
	C209.24,63.73,207.6,55.16,204.55,51.41z M331.4,51.28c0.35-0.03,0.58-0.02,0.67,0.02c0.57,0.26,0.87,0.91,0.73,1.57l-1.22,5.76
	l-3.52,11.39c-0.15,0.47-0.04,0.54,0.33,0.21c1.29-1.16,2.49-2.78,3.66-3.76c5.17-4.39,10.37-8.56,15.58-12.53
	c0.47-0.36,0.58-0.27,0.35,0.27L337.83,77.3c-0.13,0.3,0.24,0.57,0.48,0.34c5.25-5.11,10.86-9.65,15.15-15.53
	c1.31-1.78,1.6-1.63,0.87,0.46c-2.62,7.56-3.73,15.67-5.48,23.18c-0.4,1.72-0.17,1.81,0.7,0.28c6.74-11.92,13.45-22.69,23.97-32.76
	c0.28-0.27,0.23-0.41-0.16-0.4c-1.17,0.01-2.33,0.04-3.48,0.09c-5.9,0.29-11.25-1.24-16.04-4.6c-4.11-2.89-6.86-4.7-8.27-5.45
	c-3.26-1.74-6.88-1.82-10.87-0.23c-6.05,2.41-10.54,7.12-13.49,14.12c-0.81,1.91-1.52,3.73-2.15,5.44
	c-0.52,1.42-0.33,1.52,0.58,0.31C322.73,58.42,326.65,54.67,331.4,51.28z M215.36,123.15l-0.1,7.23c-0.01,0.24,0.19,0.45,0.43,0.46
	c5.66,0.28,6.79-2.45,9.37-7.42c3.18-6.12,8.83-11.01,16.26-9.23c13.91,7.97,7.37,32.51,5.57,44.57
	c-1.99,13.29-2.97,25.31-3.47,38.1c-0.35,9.01,0.4,18.3,6.49,25.48c3.41,4.02,15.28,7.58,18.14,0.35c0.13-0.32-0.03-0.68-0.35-0.81
	c-8.23-3.25-15.55-8.44-15.23-18.39c0.06-2.13,2.77-7.68,5.94-7.01c0.87,0.19,0.92,0.5,0.14,0.93c-1.99,1.09-2.54,2.85-1.66,5.26
	c0.11,0.29,0.3,0.51,0.58,0.64c0.95,0.46,1.93,0.55,2.93,0.28c5.89-1.61,11.9-1.57,18.04,0.13c1.15,0.32,2.27-0.61,2.17-1.8
	c-0.19-2.38-1.24-4.15-3.16-5.31c-0.28-0.17-0.2-0.6,0.12-0.66l0.44-0.07c0.51-0.09,1-0.01,1.45,0.25c3.56,2.07,5.46,4.98,5.71,8.74
	c0.58,8.67-7.49,13.31-14.27,16.47c-0.92,0.43-1.32,1.52-0.91,2.44c0.42,0.93,1.16,1.58,2.21,1.93c5.25,1.77,9.81,1.24,13.67-1.59
	c8.92-6.52,8.7-23.95,8.08-33.76c-0.78-12.19-1.97-24.14-3.91-36.33c-2.04-12.84-6.34-31.55,7.17-40.12
	c8.63-0.35,14.22,4.37,16.77,14.16c0.08,0.3,0.25,0.57,0.5,0.76c2.16,1.68,4.65,2.47,7.46,2.37c0.39-0.01,0.62-0.22,0.69-0.61
	c0.74-4.66,0.2-9.13-1.62-13.42c-2.15-6.68-5.46-12.43-9.92-17.25c-9.63-10.4-24.2-6.36-30.1,5.51c-2.78,5.59-4.28,11.4-4.51,17.41
	c-0.01,0.06-0.04,0.09-0.1,0.09l-0.27,0.01c-0.23,0.01-0.35-0.1-0.38-0.33c-2.61-20.96-6.49-42.49-1.88-62.38
	c0.07-0.31-0.17-0.61-0.49-0.6l-9.88,0.14c-0.24,0.01-0.42,0.23-0.36,0.47c5.02,21.06,0.27,41.51-1.83,62.47
	c0,0.01-0.01,0.02-0.02,0.02c-0.02,0-0.03-0.01-0.03-0.02c-1.49-6.51-2.59-13.57-5.94-19.27c-7.03-11.95-21.45-12.53-30.03-1.71
	C219.91,108.48,216.61,115.62,215.36,123.15z M241.96,120.19c0.02-1.38-1.05-2.53-2.43-2.62l-3.11-0.18
	c-1.91-0.12-3.28,1.82-2.54,3.59l1.09,2.58c0.57,1.33,2.12,1.94,3.44,1.35l2-0.89c0.93-0.42,1.53-1.33,1.54-2.34L241.96,120.19z
	 M302.55,119.07c-1.11-1.82-3.57-2.35-5.5-1.18c-1.92,1.17-2.58,3.6-1.47,5.43c1.11,1.82,3.57,2.35,5.5,1.18
	C303,123.32,303.66,120.89,302.55,119.07z M450.02,130.53c-0.01-3.18-2.59-5.75-5.77-5.75l-22.08,0.04c-3.18,0-5.76,2.59-5.75,5.77
	l0,0.46c0.01,3.18,2.59,5.75,5.77,5.75l22.08-0.04c3.18,0,5.76-2.59,5.75-5.77L450.02,130.53z M304.51,140.68
	c-4.07,3.45-6.62,7.59-7.67,12.42c-3.15,14.51-0.51,30.19,1.14,45.07c0,0.03,0.03,0.05,0.05,0.05c0.03,0,0.05-0.01,0.06-0.04
	c0.37-1.99,0.6-4.01,0.69-6.07c0.1-2.68,1.06-6.72,2.87-12.11c2.34-7,6.44-11.77,14.24-11.62c9.37,0.17,20.11,6.24,24.96,14.31
	c0.27,0.44,0.45,0.41,0.54-0.1l0.3-1.61c0.58-10.69-1.92-23.01-8.84-31.68c-3.72-5.41-8.48-9.33-14.29-11.74
	c-2.86-1.9-4.32-4.45-4.37-7.66c-0.01-0.43-0.2-0.68-0.57-0.77c-0.27-0.06-0.46,0.04-0.56,0.3c-0.19,0.48-0.33,0.97-0.42,1.46
	c-0.71,3.84-5.42,4.25-8.34,5.35c-0.34,0.13-0.48,0.37-0.42,0.73L304.51,140.68z M220.81,137.22c-9.09,3.55-15.78,10.29-20.07,20.22
	c-3.6,8.34-5.16,16.87-4.69,25.59c0.03,0.42,0.16,0.46,0.41,0.12c3.92-5.4,7.74-8.9,12.41-11.34c5.45-2.85,13.64-4.95,19.27-2.31
	c8.96,4.2,10.75,21.06,11.31,29.54c0.01,0.15,0.08,0.22,0.23,0.22h0.01c0.15,0.01,0.23-0.06,0.24-0.21
	c0.6-6.25,1.19-12.5,1.77-18.75c1.25-13.64,2.33-30.74-8.69-40.44l0.91-2.53c0.23-0.64-0.24-1.32-0.92-1.32
	c-2.83-0.04-5-1.25-6.51-3.62c-0.33-0.53-1.14-0.37-1.26,0.24C224.78,134.97,223.3,136.5,220.81,137.22z M389.82,187.04
	c1.27-3.76,2.77-7.33,5.69-9.93c0.73-0.65,0.77-1.33,0.12-2.06l-8.52-9.52c-0.12-0.13-0.18-0.11-0.19,0.06
	c-0.11,7.18,0.48,14.3,1.76,21.37C388.95,188.45,389.33,188.48,389.82,187.04z M495.51,176.32c4.68,4.06,5.07,6.58,7,11.65
	c0.15,0.38,0.66,0.43,0.87,0.08c0.59-0.98,0.99-2.1,1.21-3.35c1.07-6.15,1.31-12.3,0.71-18.45c-0.12-1.23-0.57-1.37-1.35-0.4
	l-8.44,10.38C495.49,176.26,495.49,176.3,495.51,176.32z M192.26,261.87c-1.02,3.98-1.52,7.88-1.51,11.71
	c0.01,2.28,0.29,2.31,0.84,0.1c1.06-4.23,5.97-9.83,8.88-12.94c1.5-1.61,1.76-1.43,0.77,0.54c-1.55,3.07-2.8,6.59-3.73,10.55
	c-2.71,11.49-3.61,23.39-2.7,35.69c0.14,1.81,0.45,1.84,0.93,0.09c2.14-7.8,5.61-15.44,10.42-22.91c0.92-1.67,4.17-6.77,5.99-7.24
	c0.35-0.09,0.68,0.23,0.59,0.58c-1.5,6.05-2.5,12.07-3.01,18.08c-1.53,18.27-1.59,35.91,4.39,53.44c0.31,0.92,0.42,0.9,0.32-0.07
	c-2.15-21.11,2.95-40.29,15.3-57.55c0.86-1.21,1.52-2.07,1.99-2.58c1.73-1.89,2.13-1.66,1.2,0.69c-1.38,3.51-2.46,7.61-3.25,12.3
	c-3.36,19.97-3.13,41.68,2.05,61.28c2.36,8.95,6.37,18.04,10.58,26.47c0.46,0.92,0.72,0.87,0.77-0.16l0.23-4.62
	c0.38-2.46,0.95-4.19,1.71-5.19c0.77-1.02,1.31-0.91,1.62,0.33c4.17,16.55,9.62,32.33,16.35,47.32c1.96,4.38,3.77,7.58,5.44,9.6
	c0.35,2.48,1.72,5.48,4.11,9.01l3.52,6.65c0.11,0.21,0.33,0.34,0.57,0.34l46.74-0.03c0.69,0,1.33-0.36,1.69-0.94
	c10.45-16.96,20.89-34.43,32.58-50.54c0.2-0.27,0.24-0.57,0.12-0.89c-5.51-14.52-8.54-26.37-9-41.76c0-0.07-0.04-0.11-0.11-0.11
	s-0.15,0-0.26-0.01c-0.02,0-0.03,0.01-0.04,0.03c-1.59,8.04-5.33,12.94-10.63,20.31c-0.71,0.98-1.45,1.74-2.2,2.27
	c-0.41,0.29-0.54,0.19-0.39-0.28c3.69-12.28,3.49-24.66,2.13-37.27c-0.1-0.91-0.27-0.93-0.52-0.04c-0.29,1.09-0.59,2.4-0.9,3.93
	c-1.21,6.06-2.88,11.98-5.03,17.75c-5.46,14.7-14.27,26.96-26.43,36.79c-0.95,0.77-1.96,1.16-3.01,1.15
	c5.48-9.96,9.11-20.22,10.9-30.77c4.66-27.57,3.07-58.06-7.09-84.57c-0.06-0.16,0.05-0.34,0.22-0.37c0.19-0.02,0.35,0.03,0.46,0.15
	c12.18,12.67,19.85,27.51,23,44.53c0.25,1.32,0.45,1.31,0.62-0.02c2.39-18.42,0.83-36.48-4.68-54.18c-0.49-1.59-0.07-1.89,1.26-0.89
	l1.06,0.79c7.6,8.82,12.97,18.83,16.1,30.04c0.02,0.06,0.1,0.05,0.11-0.01c1.6-16.15-0.94-30.5-7.06-45.57
	c-1.29-3.16-0.83-3.43,1.36-0.81l7.75,9.27c0.73,1.23,1.25,2.54,1.56,3.95c0.01,0.05,0.05,0.09,0.1,0.1l0.3,0.06
	c0.15,0.03,0.28-0.09,0.27-0.24c-0.71-13.17-5.02-25.38-12.93-36.64c-7.54-10.73-17.64-18.15-30.29-22.27
	c-0.29-0.1-0.6,0.08-0.68,0.38c-1.59,6.63-4.86,12.05-9.81,16.27c-2.66,0.81-3.93,1.36-4.5,4.33c-1.85,9.68-8.65,17.53-18.89,18.5
	c-11.89,1.13-21.93-7.51-22.6-19.43c-0.02-0.32-0.19-0.61-0.46-0.78l-4.97-3.16c-4.21-4.22-7.23-9.47-9.05-15.76
	c-0.13-0.43-0.58-0.68-1-0.55C211.4,222.25,197.15,241.16,192.26,261.87z M410.99,227.15c1.56,1.44,2.17,4.79,5.29,2.57
	c5.71-4.07-0.3-11.69-5.6-7.81c-8.58,6.28-6.2,18.18,3.19,21.99c12.32,5.01,25.69-12.29,14.41-20.77c-0.29-0.21-0.37-0.15-0.24,0.19
	c1.54,4.15,1.22,7.98-0.96,11.48c-2.82,4.53-8.87,6.38-13.42,3.45c-3.1-1.99-4.94-7.32-3.59-10.89
	C410.21,226.98,410.69,226.87,410.99,227.15z M461.89,222.96c-12.84,11.44,7.49,30.43,19.62,17.29c4.73-5.13,4.31-13.43-1.17-17.83
	c-0.85-0.69-1.64-1.07-2.39-1.14c-1.06-0.11-1.21,0.2-0.44,0.94c4.13,3.98,4.71,8.28,1.74,12.91c-2.99,4.66-8.7,6.04-13.28,2.51
	c-4.47-3.45-5.61-8.2-3.44-14.25C462.88,222.41,462.67,222.27,461.89,222.96z M477.25,230.8c1.84-0.72,2.69-2.97,1.89-5.02
	c-0.8-2.05-2.95-3.13-4.8-2.4c-1.84,0.72-2.69,2.97-1.89,5.02C473.25,230.44,475.4,231.52,477.25,230.8z M267.44,238.38l-0.81-1.38
	c-0.25-0.43-0.62-0.64-1.11-0.65l-9.02-0.05c-0.34-0.01-0.59,0.31-0.51,0.64c3.62,14.79,21.15,15.17,25.1,0.46
	c0.09-0.33-0.04-0.53-0.37-0.6c-2.91-0.6-7.49-1.26-9.29,1.59c-0.19,0.29-0.48,0.49-0.82,0.56c-0.89,0.19-1.77,0.14-2.63-0.13
	C267.75,238.74,267.57,238.59,267.44,238.38z M468.59,277.92c7.57-14.62-12.54-31.02-25.95-28.89c-9.09,1.45-19.89,8.52-22.34,17.95
	c-1.7,6.53,2.42,13.64,7.51,17.51C439.12,293.09,461.43,291.75,468.59,277.92z M407.41,269.03c-7.12-2.11-14.38-3.48-21.78-4.12
	c-0.5-0.05-0.55,0.09-0.16,0.4c1.23,0.97,2.56,1.55,3.99,1.75c7.81,1.11,13.81,2.05,18.01,2.8c0.09,0.01,0.14-0.02,0.16-0.1
	l0.06-0.25C407.74,269.3,407.61,269.09,407.41,269.03z M483.53,269.56l22.48-3.44c0.11-0.02,0.18-0.12,0.16-0.23l-0.01-0.09
	c-0.12-0.76-5.26-0.6-11.48,0.35l-0.34,0.06c-6.22,0.95-11.17,2.33-11.05,3.09l0.01,0.09C483.32,269.5,483.42,269.58,483.53,269.56z
	 M501.9,273.37c0-0.45-4.31-0.82-9.64-0.83c-5.32-0.01-9.64,0.35-9.64,0.79c0,0.45,4.31,0.82,9.64,0.83
	C497.58,274.17,501.9,273.81,501.9,273.37z M408.19,273.4c0-0.3-0.25-0.54-0.55-0.55l-18.62,0.16c-0.31,0-0.55,0.25-0.55,0.55
	l0,0.04c0,0.3,0.25,0.54,0.55,0.55l18.62-0.16c0.31,0,0.55-0.25,0.55-0.55L408.19,273.4z M408.51,277.71
	c-0.04-0.47-3.96-0.52-8.75-0.1c-4.79,0.42-8.65,1.15-8.6,1.62c0.04,0.47,3.96,0.52,8.75,0.1
	C404.7,278.91,408.55,278.18,408.51,277.71z M499.44,279.1c0.02-0.34-0.23-0.64-0.57-0.66l-14.86-1.09
	c-0.34-0.03-0.64,0.23-0.66,0.57l0,0.04c-0.02,0.34,0.23,0.64,0.57,0.66l14.86,1.09c0.34,0.03,0.64-0.23,0.66-0.57L499.44,279.1z
	 M448.26,307.11c0.08-0.38-0.23-0.73-0.62-0.69l-3.64,0.36c-0.42,0.04-0.65,0.52-0.42,0.88l2.65,4.05c0.28,0.42,0.93,0.31,1.04-0.19
	L448.26,307.11z M307.9,526.28c5.96,2.42,2.76,8.22-2.02,8.33c-6.59,0.15-12.43-2.08-17.5-6.69c-0.39-0.34-0.99-0.24-1.23,0.22
	l-6.28,11.99c-0.23,0.44-0.12,0.99,0.26,1.3c8.31,6.83,19.81,9.3,30.26,7.48c10.89-1.91,18.33-9.36,17.86-20.83
	c-0.53-13.02-13.47-15.78-23.14-19.45c-8.03-3.04-4.69-9.29,2.3-8.95c4.88,0.23,9.35,1.87,13.42,4.9c0.3,0.23,0.53,0.17,0.69-0.17
	l5.72-12.32c0.3-0.63,0.06-1.39-0.55-1.75c-9.7-5.62-24.1-7.7-34.18-1.97c-6.67,3.79-10.79,11.6-9.54,19.15
	C285.96,519.45,298.56,522.5,307.9,526.28z M475.86,518.65c0.81-17.89-13.62-33.08-32.21-33.93c-18.6-0.84-34.34,12.98-35.16,30.87
	c-0.81,17.89,13.62,33.08,32.21,33.93C459.3,550.36,475.04,536.54,475.86,518.65z M111.46,531.45c10.5,0.59,19.47-0.32,26.37-8.66
	c9.45-11.43,5.56-29.57-7.97-34.95c-2.99-1.19-7.88-1.86-14.67-1.99c-6.97-0.13-13.89-0.16-20.76-0.08
	c-0.45,0.01-0.81,0.37-0.81,0.81c0.01,19.19,0.02,38.45,0.03,57.78c0.01,1.53,0.19,2.77,0.54,3.73c0.15,0.39,0.5,0.65,0.9,0.69
	c4.95,0.49,9.89,0.42,14.81-0.22c0.41-0.05,0.73-0.37,0.79-0.77c0.78-5.15,0.34-10.68,0.25-15.83
	C110.93,531.67,111.17,531.43,111.46,531.45z M170.49,525.16c0-0.4,0.2-0.6,0.6-0.6l22-0.03c0.62,0,1.11-0.5,1.1-1.12l-0.24-13.52
	c0-0.22-0.18-0.4-0.4-0.39l-22.62,0.28c-0.26,0-0.39-0.13-0.4-0.39l-0.15-7.55c-0.01-0.34,0.16-0.51,0.5-0.52l25.32-0.2
	c0.65-0.01,1.18-0.54,1.17-1.19l-0.09-13c-0.01-0.87-0.45-1.31-1.32-1.3l-42.57,0.18c-0.31,0-0.57,0.25-0.56,0.56
	c0.06,18.9,0.07,37.81,0.04,56.74c0,1.74,0.17,3.32,0.52,4.75c0.14,0.58,0.67,0.99,1.27,0.99l42.88-0.1c0.43,0,0.78-0.36,0.77-0.79
	l-0.07-14.01c0-0.56-0.45-1.01-1.01-1l-26.08,0.26c-0.4,0.01-0.6-0.19-0.61-0.59L170.49,525.16z M241.59,501.6l16.41-0.23
	c0.48-0.01,0.86-0.39,0.86-0.87v-13.75c0-0.6-0.48-1.09-1.08-1.09l-51.39,0.1c-0.39,0-0.59,0.2-0.58,0.6l0.23,14.58
	c0.01,0.37,0.3,0.66,0.67,0.66l16.42,0.03c0.29,0,0.52,0.23,0.52,0.52c0.25,13.72,0.28,27.46,0.1,41.21
	c-0.03,1.73,0.14,3.29,0.5,4.68c0.15,0.55,0.65,0.94,1.23,0.93l14.6-0.18c0.6-0.01,1.09-0.5,1.09-1.11l-0.13-45.52
	C241.03,501.79,241.22,501.61,241.59,501.6z M380.54,525.53c-0.13,6.37-0.17,12.9-0.1,19.58c0.01,1.23,0.22,2.23,0.63,2.98
	c0.16,0.3,0.47,0.5,0.81,0.53c4.95,0.46,9.92,0.45,14.9-0.02c0.87-0.08,1.54-0.81,1.54-1.69l0.06-59.9c0.01-0.74-0.6-1.35-1.34-1.35
	l-15.77,0.03c-0.44,0-0.79,0.35-0.79,0.79l-0.1,22.93c0,0.19-0.15,0.34-0.34,0.34l-22.14,0.06c-0.25,0-0.45-0.2-0.45-0.44
	l-0.23-23.31c0-0.21-0.17-0.38-0.39-0.38l-16.32,0.02c-0.48,0-0.87,0.39-0.86,0.86c0.03,19.23,0.01,38.49-0.06,57.8
	c-0.01,1.66,0.22,2.97,0.67,3.94c0.15,0.31,0.45,0.5,0.79,0.5l14.65,0.1c1.08,0.01,1.62-0.53,1.62-1.61l0.08-22.13
	c0-0.17,0.14-0.31,0.31-0.31l21.98-0.19C380.27,524.65,380.55,524.94,380.54,525.53z M503.48,531.6c2.39-0.04,4.78-0.07,7.15-0.08
	c11.8-0.07,22.08-7.22,24.25-19.15c1.33-7.29-0.31-14.91-5.67-20.11c-4.91-4.76-10.29-6.04-17.07-6.22
	c-8.58-0.23-17.06-0.32-25.43-0.28c-0.52,0.01-0.95,0.4-1.01,0.91c-0.17,1.62-0.25,3.27-0.23,4.94c0.23,17.45,0.27,34.89,0.14,52.34
	c-0.02,3.16,0.31,4.8,3.77,4.92c5.37,0.19,9.45,0.19,12.26-0.01c0.39-0.03,0.62-0.23,0.7-0.6c1.09-4.94,0.53-11.01,0.58-16.1
	C502.92,531.79,503.11,531.6,503.48,531.6z M522.34,570.08c0-3.43-2.78-6.21-6.21-6.21H296.29c-3.43,0-6.21,2.78-6.21,6.21v0.36
	c0,3.43,2.78,6.21,6.21,6.21h219.84c3.43,0,6.21-2.78,6.21-6.21V570.08z"/>
<path class="st1" d="M205.63,49.31l-0.93-0.62c-0.93-0.61-1.21-0.39-0.85,0.66l0.7,2.06c3.05,3.75,4.69,12.32,5.79,17.03
	c0.15,0.66,0,0.75-0.47,0.26c-5.47-5.75-12.69-10.46-18.83-15.56c-0.21-0.18-0.27-0.14-0.16,0.12l10.13,23.93
	c0.13,0.32,0.07,0.36-0.18,0.12c-2.29-2.19-4.68-4.35-7.16-6.47c-3.82-3.26-6.77-6.6-9.84-10.24c-0.94-1.11-1.09-1.01-0.44,0.3
	c1.22,2.47,2.16,5.38,2.81,8.74c1.08,5.6,2.41,10.95,4,16.06c0.29,0.93,0.14,1-0.43,0.21c-7.97-10.93-14.28-22.66-23.92-32.47
	c-0.24-0.25-0.19-0.36,0.16-0.34c7.77,0.45,14.7-1.58,20.8-6.08c2.94-2.17,5.43-4.34,8.76-5.16c11.92-2.92,21.03,9,23.92,19.19
	c0.32,1.13,0.13,1.22-0.57,0.28C215.44,56.63,210.29,52.81,205.63,49.31z M201.75,51.37c-0.08-0.13-0.24-0.17-0.37-0.09l-0.14,0.08
	c-0.13,0.07-0.17,0.24-0.09,0.37l5.24,8.73c0.08,0.13,0.24,0.17,0.37,0.09l0.14-0.08c0.13-0.07,0.17-0.24,0.09-0.37L201.75,51.37z"
	/>
<path class="st1" d="M331.58,58.63c2.41-1.54,4.15-3.17,5.22-4.88c2.04-3.28,3.43-5.48,4.16-6.6c0.17-0.25,0.19-0.52,0.07-0.81
	c-0.37-0.85-1.01-1.11-1.92-0.78c-1.87,0.69-4.44,2.6-7.71,5.72c-4.75,3.39-8.67,7.14-11.76,11.27c-0.91,1.21-1.1,1.11-0.58-0.31
	c0.63-1.71,1.34-3.53,2.15-5.44c2.95-7,7.44-11.71,13.49-14.12c3.99-1.59,7.61-1.51,10.87,0.23c1.41,0.75,4.16,2.56,8.27,5.45
	c4.79,3.36,10.14,4.89,16.04,4.6c1.15-0.05,2.31-0.08,3.48-0.09c0.39-0.01,0.44,0.13,0.16,0.4C363,63.34,356.29,74.11,349.55,86.03
	c-0.87,1.53-1.1,1.44-0.7-0.28c1.75-7.51,2.86-15.62,5.48-23.18c0.73-2.09,0.44-2.24-0.87-0.46c-4.29,5.88-9.9,10.42-15.15,15.53
	c-0.24,0.23-0.61-0.04-0.48-0.34l10.15-23.09c0.23-0.54,0.12-0.63-0.35-0.27c-5.21,3.97-10.41,8.14-15.58,12.53
	c-1.17,0.98-2.37,2.6-3.66,3.76c-0.37,0.33-0.48,0.26-0.33-0.21L331.58,58.63z"/>
<path class="st2" d="M331.58,58.63l1.22-5.76c0.14-0.66-0.16-1.31-0.73-1.57c-0.09-0.04-0.32-0.05-0.67-0.02
	c3.27-3.12,5.84-5.03,7.71-5.72c0.91-0.33,1.55-0.07,1.92,0.78c0.12,0.29,0.1,0.56-0.07,0.81c-0.73,1.12-2.12,3.32-4.16,6.6
	C335.73,55.46,333.99,57.09,331.58,58.63z"/>
<path class="st2" d="M205.63,49.31c-0.38-0.13-0.67-0.13-0.87,0c-0.16,0.1-0.24,0.33-0.23,0.69c0.01,0.47,0.01,0.94,0.02,1.41
	l-0.7-2.06c-0.36-1.05-0.08-1.27,0.85-0.66L205.63,49.31z"/>
<path class="st2" d="M207,60.1c0.08,0.13,0.04,0.3-0.09,0.37l-0.14,0.08c-0.13,0.07-0.29,0.03-0.37-0.09l-5.24-8.73
	c-0.08-0.13-0.04-0.3,0.09-0.37l0.14-0.08c0.13-0.07,0.29-0.03,0.37,0.09L207,60.1z"/>
<path class="st1" d="M321.01,117.17c-0.17,0.32-0.28,0.68-0.34,1.08c-0.03,0.15-0.11,0.23-0.26,0.23c-0.09,0-0.17,0-0.26,0
	c-0.28-0.01-0.46-0.14-0.53-0.41c-0.32-1.12-1-2-2.05-2.65c-0.27-0.17-0.43-0.41-0.46-0.73c-0.05-0.44-0.34-0.68-0.85-0.72
	c-0.33-0.03-0.59-0.18-0.77-0.45c-0.16-0.24-0.24-0.5-0.24-0.77c0-0.31-0.12-0.56-0.35-0.75c-2.64-2.13-4.92-4.97-8.77-4.27
	c-3.61,0.65-6.59,2.71-8.92,6.18c-13.51,8.57-9.21,27.28-7.17,40.12c1.94,12.19,3.13,24.14,3.91,36.33
	c0.62,9.81,0.84,27.24-8.08,33.76c-3.86,2.83-8.42,3.36-13.67,1.59c-1.05-0.35-1.79-1-2.21-1.93c-0.41-0.92-0.01-2.01,0.91-2.44
	c6.78-3.16,14.85-7.8,14.27-16.47c-0.25-3.76-2.15-6.67-5.71-8.74c-0.45-0.26-0.94-0.34-1.45-0.25l-0.44,0.07
	c-0.32,0.06-0.4,0.49-0.12,0.66c1.92,1.16,2.97,2.93,3.16,5.31c0.1,1.19-1.02,2.12-2.17,1.8c-6.14-1.7-12.15-1.74-18.04-0.13
	c-1,0.27-1.98,0.18-2.93-0.28c-0.28-0.13-0.47-0.35-0.58-0.64c-0.88-2.41-0.33-4.17,1.66-5.26c0.78-0.43,0.73-0.74-0.14-0.93
	c-3.17-0.67-5.88,4.88-5.94,7.01c-0.32,9.95,7,15.14,15.23,18.39c0.32,0.13,0.48,0.49,0.35,0.81c-2.86,7.23-14.73,3.67-18.14-0.35
	c-6.09-7.18-6.84-16.47-6.49-25.48c0.5-12.79,1.48-24.81,3.47-38.1c1.8-12.06,8.34-36.6-5.57-44.57c-3.1-3.39-6.24-5.11-9.42-5.15
	c-1.57-0.02-3.32,0.7-5.25,2.17c-4.38,3.35-8.59,6.88-9.7,11.64c-0.27,1.15-0.8,1.25-1.59,0.3c1.25-7.53,4.55-14.67,9.91-21.42
	c8.58-10.82,23-10.24,30.03,1.71c3.35,5.7,4.45,12.76,5.94,19.27c0,0.01,0.01,0.02,0.03,0.02c0.01,0,0.02-0.01,0.02-0.02
	c2.1-20.96,6.85-41.41,1.83-62.47c-0.06-0.24,0.12-0.46,0.36-0.47l9.88-0.14c0.32-0.01,0.56,0.29,0.49,0.6
	c-4.61,19.89-0.73,41.42,1.88,62.38c0.03,0.23,0.15,0.34,0.38,0.33l0.27-0.01c0.06,0,0.09-0.03,0.1-0.09
	c0.23-6.01,1.73-11.82,4.51-17.41c5.9-11.87,20.47-15.91,30.1-5.51C315.55,104.74,318.86,110.49,321.01,117.17z"/>
<path class="st2" d="M321.01,117.17c1.82,4.29,2.36,8.76,1.62,13.42c-0.07,0.39-0.3,0.6-0.69,0.61c-2.81,0.1-5.3-0.69-7.46-2.37
	c-0.25-0.19-0.42-0.46-0.5-0.76c-2.55-9.79-8.14-14.51-16.77-14.16c2.33-3.47,5.31-5.53,8.92-6.18c3.85-0.7,6.13,2.14,8.77,4.27
	c0.23,0.19,0.35,0.44,0.35,0.75c0,0.27,0.08,0.53,0.24,0.77c0.18,0.27,0.44,0.42,0.77,0.45c0.51,0.04,0.8,0.28,0.85,0.72
	c0.03,0.32,0.19,0.56,0.46,0.73c1.05,0.65,1.73,1.53,2.05,2.65c0.07,0.27,0.25,0.4,0.53,0.41c0.09,0,0.17,0,0.26,0
	c0.15,0,0.23-0.08,0.26-0.23C320.73,117.85,320.84,117.49,321.01,117.17z"/>
<path class="st2" d="M241.32,114.19c-7.43-1.78-13.08,3.11-16.26,9.23c-2.58,4.97-3.71,7.7-9.37,7.42
	c-0.24-0.01-0.44-0.22-0.43-0.46l0.1-7.23c0.79,0.95,1.32,0.85,1.59-0.3c1.11-4.76,5.32-8.29,9.7-11.64
	c1.93-1.47,3.68-2.19,5.25-2.17C235.08,109.08,238.22,110.8,241.32,114.19z"/>
<path class="st1" d="M241.96,120.19l-0.01,1.49c-0.01,1.01-0.61,1.92-1.54,2.34l-2,0.89c-1.32,0.59-2.87-0.02-3.44-1.35l-1.09-2.58
	c-0.74-1.77,0.63-3.71,2.54-3.59l3.11,0.18C240.91,117.66,241.98,118.81,241.96,120.19z"/>
<path class="st1" d="M302.55,119.07c1.12,1.83,0.46,4.26-1.47,5.43c-1.93,1.18-4.39,0.65-5.5-1.18c-1.12-1.83-0.46-4.26,1.47-5.43
	C298.97,116.71,301.43,117.24,302.55,119.07z"/>
<path class="st1" d="M450.02,130.99c0.01,3.18-2.57,5.77-5.75,5.77l-22.08,0.04c-3.18,0-5.76-2.57-5.77-5.75l0-0.46
	c-0.01-3.18,2.57-5.77,5.75-5.77l22.08-0.04c3.18,0,5.76,2.57,5.77,5.75L450.02,130.99z"/>
<path class="st2" d="M318.56,137.56c-3.26,0.42-6.14,0.65-9.3,1.67c-1.6,0.51-3.18,1-4.75,1.45l-0.63-3.71
	c-0.06-0.36,0.08-0.6,0.42-0.73c2.92-1.1,7.63-1.51,8.34-5.35c0.09-0.49,0.23-0.98,0.42-1.46c0.1-0.26,0.29-0.36,0.56-0.3
	c0.37,0.09,0.56,0.34,0.57,0.77C314.24,133.11,315.7,135.66,318.56,137.56z"/>
<path class="st2" d="M233.01,139.86c-1.42-0.25-2.76-0.64-4.02-1.18c-1.49-0.65-2.8-1.02-3.92-1.11c-1.3-0.11-2.72-0.22-4.26-0.35
	c2.49-0.72,3.97-2.25,4.42-4.59c0.12-0.61,0.93-0.77,1.26-0.24c1.51,2.37,3.68,3.58,6.51,3.62c0.68,0,1.15,0.68,0.92,1.32
	L233.01,139.86z"/>
<path class="st1" d="M220.81,137.22c1.54,0.13,2.96,0.24,4.26,0.35c1.12,0.09,2.43,0.46,3.92,1.11c1.26,0.54,2.6,0.93,4.02,1.18
	c11.02,9.7,9.94,26.8,8.69,40.44c-0.58,6.25-1.17,12.5-1.77,18.75c-0.01,0.15-0.09,0.22-0.24,0.21h-0.01
	c-0.15,0-0.22-0.07-0.23-0.22c-0.56-8.48-2.35-25.34-11.31-29.54c-5.63-2.64-13.82-0.54-19.27,2.31
	c-4.67,2.44-8.49,5.94-12.41,11.34c-0.25,0.34-0.38,0.3-0.41-0.12c-0.47-8.72,1.09-17.25,4.69-25.59
	C205.03,147.51,211.72,140.77,220.81,137.22z"/>
<path class="st1" d="M318.56,137.56c5.81,2.41,10.57,6.33,14.29,11.74c-0.58,2.41-1.13,4.81-1.64,7.19
	c-1.22,5.66-0.73,9.08,3.65,12.67c0.92,0.75,1.29,1.83,1.1,3.24c-0.03,0.29,0.09,0.56,0.31,0.73c0.87,0.65,1.36,1.53,1.47,2.63
	c0.03,0.32,0.17,0.59,0.41,0.81c1.59,1.43,2.77,2.9,3.54,4.41l-0.3,1.61c-0.09,0.51-0.27,0.54-0.54,0.1
	c-4.85-8.07-15.59-14.14-24.96-14.31c-7.8-0.15-11.9,4.62-14.24,11.62c-1.81,5.39-2.77,9.43-2.87,12.11
	c-0.09,2.06-0.32,4.08-0.69,6.07c-0.01,0.03-0.03,0.04-0.06,0.04c-0.02,0-0.05-0.02-0.05-0.05c-1.65-14.88-4.29-30.56-1.14-45.07
	c1.05-4.83,3.6-8.97,7.67-12.42c1.57-0.45,3.15-0.94,4.75-1.45C312.42,138.21,315.3,137.98,318.56,137.56z"/>
<path class="st2" d="M332.85,149.3c6.92,8.67,9.42,20.99,8.84,31.68c-0.77-1.51-1.95-2.98-3.54-4.41c-0.24-0.22-0.38-0.49-0.41-0.81
	c-0.11-1.1-0.6-1.98-1.47-2.63c-0.22-0.17-0.34-0.44-0.31-0.73c0.19-1.41-0.18-2.49-1.1-3.24c-4.38-3.59-4.87-7.01-3.65-12.67
	C331.72,154.11,332.27,151.71,332.85,149.3z"/>
<path class="st0" d="M65.14,394.48c-0.7-3.09-1.47-7.77-2.31-14.06c-6.01-45.01-1.17-87.67,14.6-130.06
	c11.87-31.91,28.51-61.13,49.93-87.65l1.37-1.38c0.39-0.39,0.61-0.31,0.67,0.23c0.03,0.31-0.04,0.58-0.21,0.81
	c-8,10.54-14.07,24.68-12.82,38c0.38,4.13,3.2,7.96,5.48,11.47c0.18,0.28,0.2,0.63,0.05,0.93c-14.09,28.37-13.24,63.9-5.38,93.84
	c0.22,0.83-0.03,1.85-0.75,3.05c-0.63,1.07-1.05,1.99-1.24,2.76c-1.9,7.7-3.44,15.76-5.88,23.29c-0.79,2.44-1.98,4.95-3.57,7.53
	c-5.61,9.11-11.12,16.53-18.87,25.43C78.27,377.79,72.11,385.63,65.14,394.48z M92.19,332.99c1.78-5.6,8.19-5.12,9.51-9.57
	c0.11-0.37-0.02-0.76-0.33-0.99c-3.72-2.75-8.29-4.06-10.05-9.56c-0.89-2.8-1.72-5.6-2.49-8.4c-0.26-0.94-1.34-1.38-2.19-0.89
	c-2.4,1.4-3.37,7.15-4.07,9.73c-1.19,4.37-6.1,6.31-9.67,8.66c-1.25,0.82-1.31,1.71-0.16,2.68c4.08,3.42,9.13,4.63,10.56,10.87
	c0.5,2.18,1.22,7.54,3.05,8.87c0.78,0.57,1.89,0.23,2.22-0.68C89.82,340.23,91.03,336.66,92.19,332.99z"/>
<path class="st1" d="M395.51,177.11c-2.92,2.6-4.42,6.17-5.69,9.93c-0.49,1.44-0.87,1.41-1.14-0.08
	c-1.28-7.07-1.87-14.19-1.76-21.37c0.01-0.17,0.07-0.19,0.19-0.06l8.52,9.52C396.28,175.78,396.24,176.46,395.51,177.11z"/>
<path class="st1" d="M502.51,187.97c-1.93-5.07-2.32-7.59-7-11.65c-0.02-0.02-0.02-0.06,0-0.09l8.44-10.38
	c0.78-0.97,1.23-0.83,1.35,0.4c0.6,6.15,0.36,12.3-0.71,18.45c-0.22,1.25-0.62,2.37-1.21,3.35
	C503.17,188.4,502.66,188.35,502.51,187.97z"/>
<path class="st0" d="M578.64,352.61c-1.32,24.23-6.08,47.83-14.28,70.82l-5.99,13.5c-0.29,0.64-1.24,0.47-1.29-0.23
	c-0.83-12.49-3.5-24.58-7.99-36.25c-0.11-0.3-0.12-0.6-0.02-0.9c14.72-42.4,4.28-87.31-24.31-120.97c-0.21-0.24-0.23-0.5-0.07-0.77
	c12.26-21.44,14.07-48.32,0.49-69.97c-0.31-0.49-0.37-1.23-0.18-2.21c1.49-7.58,2.24-15.22,2.26-22.93c0-0.4,0.18-0.51,0.53-0.32
	c0.09,0.04,0.23,0.18,0.42,0.41c4.06,4.8,7.75,9.87,11.08,15.21C568.14,244.36,581.22,297.16,578.64,352.61z M558.1,284.66
	c0-2.67-2.16-4.83-4.83-4.83s-4.83,2.16-4.83,4.83c0,2.67,2.16,4.83,4.83,4.83S558.1,287.33,558.1,284.66z"/>
<path class="st1" d="M242.48,232.4c-1.54,7.05-0.75,13.62,2.38,19.72c4.2,8.19,10.91,12.72,20.14,13.59
	c6.32,0.59,11.78-0.53,16.39-3.36c10.81-6.65,14.98-16.45,12.51-29.41c4.95-4.22,8.22-9.64,9.81-16.27c0.08-0.3,0.39-0.48,0.68-0.38
	c12.65,4.12,22.75,11.54,30.29,22.27c7.91,11.26,12.22,23.47,12.93,36.64c0.01,0.15-0.12,0.27-0.27,0.24l-0.3-0.06
	c-0.05-0.01-0.09-0.05-0.1-0.1c-0.31-1.41-0.83-2.72-1.56-3.95c-0.61-2.44-0.36-4.82-1.27-7.02c-1.41-3.43-3.16-6.08-5.25-7.93
	c-4.39-3.89-11.04-8.79-19.96-14.72c-0.27-0.18-0.56-0.22-0.87-0.13c-4.11,1.21-3.97,5.97-2.27,9.21
	c3.35,6.37,6.79,12.68,10.33,18.95c0.53,0.93,1.21,2.72,2.06,5.36c0.11,0.35,0.06,0.68-0.16,0.99c-0.25,0.34-0.26,0.69-0.01,1.04
	c0.2,0.29,0.21,0.59,0.02,0.89c-0.21,0.33-0.5,0.48-0.88,0.44l-1.06-0.79c-1.33-1-1.75-0.7-1.26,0.89
	c5.51,17.7,7.07,35.76,4.68,54.18c-0.17,1.33-0.37,1.34-0.62,0.02c-3.15-17.02-10.82-31.86-23-44.53c-0.11-0.12-0.27-0.17-0.46-0.15
	c-0.17,0.03-0.28,0.21-0.22,0.37c10.16,26.51,11.75,57,7.09,84.57c-1.79,10.55-5.42,20.81-10.9,30.77l-10.6,9.75
	c-0.57,0.52-1.46-0.07-1.21-0.8c1.52-4.43,2.88-8.8,4.09-13.09c3.35-11.87,3.32-23.3-0.08-34.29c-0.6-1.95-1.14-1.94-1.63,0.04
	c-6.09,24.79-21.67,47.21-20.55,73.81c0.03,0.81,0.31,1.98,0.83,3.51c0.46,1.34,0.57,2.58,0.32,3.72c-2.39-3.53-3.76-6.53-4.11-9.01
	c-3.42-10.06-6.78-19.97-10.07-29.72c-1.7-5.01-4.88-11.1-6.08-15.94c-1.15-4.68-2.61-9.26-4.38-13.75
	c-0.27-0.71-0.59-1.89-0.95-3.55c-0.93-4.25-2.6-8.08-3.88-13.96c-0.05-0.19-0.17-0.28-0.36-0.27c-0.1,0.01-0.19,0.05-0.26,0.1
	c-0.11,0.08-0.17,0.23-0.17,0.45c-0.07,5.64-0.86,11.35-0.17,16.78c0.33,2.56,0.73,5.16,1.2,7.8l-0.23,4.62
	c-0.05,1.03-0.31,1.08-0.77,0.16c-4.21-8.43-8.22-17.52-10.58-26.47c-5.18-19.6-5.41-41.31-2.05-61.28
	c0.79-4.69,1.87-8.79,3.25-12.3c0.93-2.35,0.53-2.58-1.2-0.69c-0.47,0.51-1.13,1.37-1.99,2.58c-12.35,17.26-17.45,36.44-15.3,57.55
	c0.1,0.97-0.01,0.99-0.32,0.07c-5.98-17.53-5.92-35.17-4.39-53.44c0.51-6.01,1.51-12.03,3.01-18.08c0.09-0.35-0.24-0.67-0.59-0.58
	c-1.82,0.47-5.07,5.57-5.99,7.24c-0.82-0.02-1.09-0.29-0.81-0.82c1.33-2.49,2.16-4.67,2.49-6.54c1.41-8.14,6.91-16.84,11.83-24.97
	c2.51-4.15,2.13-7.79-1.3-10.85c-0.63-0.57-1.39-0.54-2.26,0.09c-4.5,3.22-10.99,8.21-19.48,14.98c-0.84,0.67-1.68,2.43-2.52,5.26
	c-0.1,0.34-0.32,0.55-0.66,0.62c-0.55,0.11-0.94-0.09-1.19-0.6c4.89-20.71,19.14-39.62,40.17-45.78c0.42-0.13,0.87,0.12,1,0.55
	C235.25,222.93,238.27,228.18,242.48,232.4z"/>
<path class="st1" d="M410.99,227.15c-0.3-0.28-0.78-0.17-0.92,0.21c-1.35,3.57,0.49,8.9,3.59,10.89c4.55,2.93,10.6,1.08,13.42-3.45
	c2.18-3.5,2.5-7.33,0.96-11.48c-0.13-0.34-0.05-0.4,0.24-0.19c11.28,8.48-2.09,25.78-14.41,20.77c-9.39-3.81-11.77-15.71-3.19-21.99
	c5.3-3.88,11.31,3.74,5.6,7.81C413.16,231.94,412.55,228.59,410.99,227.15z"/>
<path class="st1" d="M481.51,240.25c-12.13,13.14-32.46-5.85-19.62-17.29c0.78-0.69,0.99-0.55,0.64,0.43
	c-2.17,6.05-1.03,10.8,3.44,14.25c4.58,3.53,10.29,2.15,13.28-2.51c2.97-4.63,2.39-8.93-1.74-12.91c-0.77-0.74-0.62-1.05,0.44-0.94
	c0.75,0.07,1.54,0.45,2.39,1.14C485.82,226.82,486.24,235.12,481.51,240.25z"/>
<path class="st1" d="M477.25,230.8c-1.85,0.73-4-0.35-4.8-2.4c-0.81-2.05,0.04-4.3,1.89-5.02c1.85-0.73,4,0.35,4.8,2.4
	C479.94,227.82,479.09,230.07,477.25,230.8z"/>
<path class="st2" d="M242.48,232.4l4.97,3.16c0.27,0.17,0.44,0.46,0.46,0.78c0.67,11.92,10.71,20.56,22.6,19.43
	c10.24-0.97,17.04-8.82,18.89-18.5c0.57-2.97,1.84-3.52,4.5-4.33c2.47,12.96-1.7,22.76-12.51,29.41
	c-4.61,2.83-10.07,3.95-16.39,3.36c-9.23-0.87-15.94-5.4-20.14-13.59C241.73,246.02,240.94,239.45,242.48,232.4z"/>
<path class="st2" d="M267.98,238.82c0.86,0.27,1.74,0.32,2.63,0.13c0.34-0.07,0.63-0.27,0.82-0.56c1.8-2.85,6.38-2.19,9.29-1.59
	c0.33,0.07,0.46,0.27,0.37,0.6c-3.95,14.71-21.48,14.33-25.1-0.46c-0.08-0.33,0.17-0.65,0.51-0.64l9.02,0.05
	c0.49,0.01,0.86,0.22,1.11,0.65l0.81,1.38C267.57,238.59,267.75,238.74,267.98,238.82z"/>
<path class="st2" d="M206.16,284.7c-4.81,7.47-8.28,15.11-10.42,22.91c-0.48,1.75-0.79,1.72-0.93-0.09
	c-0.91-12.3-0.01-24.2,2.7-35.69c0.93-3.96,2.18-7.48,3.73-10.55c0.99-1.97,0.73-2.15-0.77-0.54c-2.91,3.11-7.82,8.71-8.88,12.94
	c-0.55,2.21-0.83,2.18-0.84-0.1c-0.01-3.83,0.49-7.73,1.51-11.71c0.25,0.51,0.64,0.71,1.19,0.6c0.34-0.07,0.56-0.28,0.66-0.62
	c0.84-2.83,1.68-4.59,2.52-5.26c8.49-6.77,14.98-11.76,19.48-14.98c0.87-0.63,1.63-0.66,2.26-0.09c3.43,3.06,3.81,6.7,1.3,10.85
	c-4.92,8.13-10.42,16.83-11.83,24.97c-0.33,1.87-1.16,4.05-2.49,6.54C205.07,284.41,205.34,284.68,206.16,284.7z"/>
<path class="st2" d="M345.38,271.33l-7.75-9.27c-2.19-2.62-2.65-2.35-1.36,0.81c6.12,15.07,8.66,29.42,7.06,45.57
	c-0.01,0.06-0.09,0.07-0.11,0.01c-3.13-11.21-8.5-21.22-16.1-30.04c0.38,0.04,0.67-0.11,0.88-0.44c0.19-0.3,0.18-0.6-0.02-0.89
	c-0.25-0.35-0.24-0.7,0.01-1.04c0.22-0.31,0.27-0.64,0.16-0.99c-0.85-2.64-1.53-4.43-2.06-5.36c-3.54-6.27-6.98-12.58-10.33-18.95
	c-1.7-3.24-1.84-8,2.27-9.21c0.31-0.09,0.6-0.05,0.87,0.13c8.92,5.93,15.57,10.83,19.96,14.72c2.09,1.85,3.84,4.5,5.25,7.93
	C345.02,266.51,344.77,268.89,345.38,271.33z"/>
<path class="st1" d="M442.64,249.03c13.41-2.13,33.52,14.27,25.95,28.89c-7.16,13.83-29.47,15.17-40.78,6.57
	c-5.09-3.87-9.21-10.98-7.51-17.51C422.75,257.55,433.55,250.48,442.64,249.03z M445.8,277.16c3.08,3.49,6.71,4.13,10.88,1.92
	c0.15-0.08,0.23-0.24,0.22-0.41c-0.01-0.11-0.01-0.23-0.01-0.34c-0.01-0.17-0.09-0.25-0.26-0.25c-4.46-0.06-9.81-3.05-9.42-8.2
	c0.38-5.03,5.78-4.9,8.38-8.04c5.8-7.01-17.65-9.68-20.62-3.47c-1.79,3.73,4.32,6.63,6.8,7.96c0.29,0.15,0.52,0.39,0.66,0.68
	c3.42,6.99-1.34,11.26-8.13,10.87c-0.35-0.02-0.5,0.15-0.45,0.51c0.05,0.37,0.25,0.63,0.59,0.76c3.96,1.61,7.47,0.93,10.53-2.02
	C445.26,276.85,445.53,276.86,445.8,277.16z"/>
<path class="st0" d="M444.97,277.13c-3.06,2.95-6.57,3.63-10.53,2.02c-0.34-0.13-0.54-0.39-0.59-0.76c-0.05-0.36,0.1-0.53,0.45-0.51
	c6.79,0.39,11.55-3.88,8.13-10.87c-0.14-0.29-0.37-0.53-0.66-0.68c-2.48-1.33-8.59-4.23-6.8-7.96c2.97-6.21,26.42-3.54,20.62,3.47
	c-2.6,3.14-8,3.01-8.38,8.04c-0.39,5.15,4.96,8.14,9.42,8.2c0.17,0,0.25,0.08,0.26,0.25c0,0.11,0,0.23,0.01,0.34
	c0.01,0.17-0.07,0.33-0.22,0.41c-4.17,2.21-7.8,1.57-10.88-1.92C445.53,276.86,445.26,276.85,444.97,277.13z"/>
<path class="st1" d="M407.41,269.03c0.2,0.06,0.33,0.27,0.28,0.48l-0.06,0.25c-0.02,0.08-0.07,0.11-0.16,0.1
	c-4.2-0.75-10.2-1.69-18.01-2.8c-1.43-0.2-2.76-0.78-3.99-1.75c-0.39-0.31-0.34-0.45,0.16-0.4
	C393.03,265.55,400.29,266.92,407.41,269.03z"/>
<path class="st1" d="M483.53,269.56c-0.11,0.02-0.21-0.06-0.23-0.17l-0.01-0.09c-0.12-0.76,4.83-2.14,11.05-3.09l0.34-0.06
	c6.22-0.95,11.36-1.11,11.48-0.35l0.01,0.09c0.02,0.11-0.05,0.21-0.16,0.23L483.53,269.56z"/>
<path class="st1" d="M501.9,273.37c0,0.44-4.32,0.8-9.64,0.79c-5.33-0.01-9.64-0.38-9.64-0.83c0-0.44,4.32-0.8,9.64-0.79
	C497.59,272.55,501.9,272.92,501.9,273.37z"/>
<path class="st1" d="M408.19,273.44c0,0.31-0.24,0.56-0.55,0.55l-18.62,0.16c-0.31,0-0.56-0.24-0.55-0.55l0-0.04
	c0-0.31,0.24-0.56,0.55-0.55l18.62-0.16c0.31,0,0.56,0.24,0.55,0.55L408.19,273.44z"/>
<path class="st1" d="M408.51,277.71c0.04,0.47-3.81,1.2-8.6,1.62c-4.8,0.42-8.72,0.37-8.75-0.1c-0.04-0.47,3.81-1.2,8.6-1.62
	C404.55,277.19,408.47,277.24,408.51,277.71z"/>
<path class="st1" d="M499.44,279.14c-0.03,0.34-0.33,0.6-0.66,0.57l-14.86-1.09c-0.34-0.02-0.59-0.32-0.57-0.66l0-0.04
	c0.03-0.34,0.33-0.6,0.66-0.57l14.86,1.09c0.34,0.02,0.59,0.32,0.57,0.66L499.44,279.14z"/>
<path class="st2" d="M384.72,279.43l7.02,6.2c0.61,0.54,0.42,1.54-0.35,1.81c-0.46,0.16-1.01,0.5-1.66,1.01
	c-7.12,5.71-13.36,11.99-18.72,18.84c-1.53,1.95-1.86,1.76-0.99-0.55c1.8-4.8,4.45-9.83,7.96-15.1c2.33-3.49,4.59-7.01,6.79-10.58
	c0.17-0.27,0.15-0.53-0.06-0.78c-0.12-0.15-0.27-0.27-0.45-0.38C384.51,279.71,384.66,279.55,384.72,279.43z"/>
<path class="st1" d="M558.1,284.66c0,2.67-2.16,4.83-4.83,4.83s-4.83-2.16-4.83-4.83c0-2.67,2.16-4.83,4.83-4.83
	S558.1,281.99,558.1,284.66z"/>
<path class="st2" d="M398.9,293.55c-0.79,0.31-1.14,0.89-1.03,1.74c0.03,0.31-0.05,0.57-0.25,0.8c-2.34,2.62-4.99,4.64-7.38,7.31
	c-2.53,2.83-5.42,5.18-8.65,7.07c4.21-6.63,9.39-12.36,15.55-17.19c0.26-0.21,0.55-0.28,0.88-0.23
	C398.37,293.12,398.67,293.28,398.9,293.55z"/>
<path class="st1" d="M92.19,332.99c-1.16,3.67-2.37,7.24-3.62,10.72c-0.33,0.91-1.44,1.25-2.22,0.68c-1.83-1.33-2.55-6.69-3.05-8.87
	c-1.43-6.24-6.48-7.45-10.56-10.87c-1.15-0.97-1.09-1.86,0.16-2.68c3.57-2.35,8.48-4.29,9.67-8.66c0.7-2.58,1.67-8.33,4.07-9.73
	c0.85-0.49,1.93-0.05,2.19,0.89c0.77,2.8,1.6,5.6,2.49,8.4c1.76,5.5,6.33,6.81,10.05,9.56c0.31,0.23,0.44,0.62,0.33,0.99
	C100.38,327.87,93.97,327.39,92.19,332.99z"/>
<path class="st1" d="M448.26,307.11l-0.99,4.41c-0.11,0.5-0.76,0.61-1.04,0.19l-2.65-4.05c-0.23-0.36,0-0.84,0.42-0.88l3.64-0.36
	C448.03,306.38,448.34,306.73,448.26,307.11z"/>
<path class="st2" d="M272.54,446.39c0.25-1.14,0.14-2.38-0.32-3.72c-0.52-1.53-0.8-2.7-0.83-3.51
	c-1.12-26.6,14.46-49.02,20.55-73.81c0.49-1.98,1.03-1.99,1.63-0.04c3.4,10.99,3.43,22.42,0.08,34.29
	c-1.21,4.29-2.57,8.66-4.09,13.09c-0.25,0.73,0.64,1.32,1.21,0.8l10.6-9.75c1.05,0.01,2.06-0.38,3.01-1.15
	c12.16-9.83,20.97-22.09,26.43-36.79c2.15-5.77,3.82-11.69,5.03-17.75c0.31-1.53,0.61-2.84,0.9-3.93c0.25-0.89,0.42-0.87,0.52,0.04
	c1.36,12.61,1.56,24.99-2.13,37.27c-0.15,0.47-0.02,0.57,0.39,0.28c0.75-0.53,1.49-1.29,2.2-2.27c5.3-7.37,9.04-12.27,10.63-20.31
	c0.01-0.02,0.02-0.03,0.04-0.03c0.11,0.01,0.19,0.01,0.26,0.01s0.11,0.04,0.11,0.11c0.46,15.39,3.49,27.24,9,41.76
	c0.12,0.32,0.08,0.62-0.12,0.89c-11.69,16.11-22.13,33.58-32.58,50.54c-0.36,0.58-1,0.94-1.69,0.94l-46.74,0.03
	c-0.24,0-0.46-0.13-0.57-0.34L272.54,446.39z"/>
<path class="st1" d="M189.24,354.13c0.35,2.83,0.61,5.65,0.79,8.46c0.3,4.6,1.99,10.17,5.07,16.72c2.42,5.15,4.93,10.21,7.39,15.53
	c0.18,0.39-0.21,0.81-0.61,0.65c-1.85-0.72-5.03-5.61-6.31-7.34c-0.19-0.26-0.44-0.4-0.76-0.41c-0.31-0.01-0.44-0.2-0.41-0.58
	c0.03-0.39-0.47-0.57-0.69-0.25c-0.31,0.46-0.73,0.7-1.24,0.72c-1.07-2.21-2.07-5.31-2.98-9.29c-2.49-10.81-3.52-21.17-3.08-31.08
	c0.09-2.02,0.4-2.05,0.93-0.1L189.24,354.13z"/>
<path class="st2" d="M167.54,353.66c5.03,11.21,12.16,21.76,21.37,31.65c1.32,1.43,2.37,2.39,3.16,2.89c0.25,0.16,0.4,0.09,0.45-0.2
	c0.02-0.12,0-0.24-0.05-0.37c0.51-0.02,0.93-0.26,1.24-0.72c0.22-0.32,0.72-0.14,0.69,0.25c-0.03,0.38,0.1,0.57,0.41,0.58
	c0.32,0.01,0.57,0.15,0.76,0.41c1.28,1.73,4.46,6.62,6.31,7.34c0.4,0.16,0.79-0.26,0.61-0.65c-2.46-5.32-4.97-10.38-7.39-15.53
	c-3.08-6.55-4.77-12.12-5.07-16.72c-0.18-2.81-0.44-5.63-0.79-8.46c6.47,15.6,15.47,30.13,25.58,42.8
	c11.61,14.54,21.61,27.46,30,38.76c4.73,6.37,9.11,11.63,14.05,17.12c0.31,0.34,0.23,0.51-0.23,0.52l-21.31,0.25
	c-0.77,0.01-1.51-0.31-2.03-0.88c-13.91-15.17-28.87-28.9-43.71-43.03c-1.79-1.71-3.51-3.46-5.16-5.26
	c0.11-0.08,0.21-0.24,0.29-0.47c0.11-0.33,0.04-0.61-0.19-0.86c-3.34-3.64-4.51-8.24-6.5-11.93c-1.78-3.32-3.23-6.93-4.76-10.19
	c-2.11-4.49-4.6-10.69-7.48-18.61C166.64,359.18,166.55,356.28,167.54,353.66z"/>
<path class="st2" d="M268.43,437.38c-1.67-2.02-3.48-5.22-5.44-9.6c-6.73-14.99-12.18-30.77-16.35-47.32
	c-0.31-1.24-0.85-1.35-1.62-0.33c-0.76,1-1.33,2.73-1.71,5.19c-0.47-2.64-0.87-5.24-1.2-7.8c-0.69-5.43,0.1-11.14,0.17-16.78
	c0-0.22,0.06-0.37,0.17-0.45c0.07-0.05,0.16-0.09,0.26-0.1c0.19-0.01,0.31,0.08,0.36,0.27c1.28,5.88,2.95,9.71,3.88,13.96
	c0.36,1.66,0.68,2.84,0.95,3.55c1.77,4.49,3.23,9.07,4.38,13.75c1.2,4.84,4.38,10.93,6.08,15.94
	C261.65,417.41,265.01,427.32,268.43,437.38z"/>
<path class="st0" d="M598.52,516.65c1.06,1.72,2.46,3.59,4.2,5.62c8.33,9.75,16.61,19.56,24.84,29.41c0.67,0.81,1.18,1.54,1.52,2.19
	c0.74,1.43-0.17,3.16-1.77,3.36c-1.44,0.17-3.08,0.26-4.92,0.27c-15.18,0.04-30.36,0.05-45.54,0.02c-0.29,0-0.43-0.14-0.43-0.43
	l-0.03-82.21c0-0.4,0.32-0.72,0.71-0.73c16.1-0.13,32.03-0.19,47.79-0.18c1.7,0,2.75,0.63,3.14,1.89c0.16,0.53,0.05,1.11-0.29,1.54
	l-29.09,36.87C598.05,515.04,598.01,515.83,598.52,516.65z"/>
<path class="st0" d="M30.28,515.2l-29.2-38.27c-0.39-0.51-0.42-1.21-0.07-1.75c0.42-0.63,1.05-0.95,1.88-0.96
	c15.73-0.13,31.59-0.17,47.59-0.12c0.52,0,0.94,0.42,0.94,0.94l-0.12,81.81c0,0.36-0.3,0.66-0.66,0.66
	c-14.37,0.03-28.78,0.07-43.25,0.12c-1.93,0.01-3.85-0.14-5.76-0.44c-0.32-0.05-0.6-0.21-0.8-0.45c-1.12-1.36-1.11-2.74,0.02-4.13
	c7.99-9.85,16.02-19.67,24.11-29.44c1.86-2.25,3.64-4.58,5.33-6.97C30.53,515.87,30.53,515.53,30.28,515.2z"/>
<path class="st1" d="M305.88,534.61c4.78-0.11,7.98-5.91,2.02-8.33c-9.34-3.78-21.94-6.83-23.93-18.76
	c-1.25-7.55,2.87-15.36,9.54-19.15c10.08-5.73,24.48-3.65,34.18,1.97c0.61,0.36,0.85,1.12,0.55,1.75l-5.72,12.32
	c-0.16,0.34-0.39,0.4-0.69,0.17c-4.07-3.03-8.54-4.67-13.42-4.9c-6.99-0.34-10.33,5.91-2.3,8.95c9.67,3.67,22.61,6.43,23.14,19.45
	c0.47,11.47-6.97,18.92-17.86,20.83c-10.45,1.82-21.95-0.65-30.26-7.48c-0.38-0.31-0.49-0.86-0.26-1.3l6.28-11.99
	c0.24-0.46,0.84-0.56,1.23-0.22C293.45,532.53,299.29,534.76,305.88,534.61z"/>
<path class="st1" d="M475.86,518.65c-0.82,17.89-16.56,31.71-35.16,30.87c-18.6-0.85-33.03-16.04-32.21-33.93
	c0.82-17.89,16.56-31.71,35.16-30.87C462.24,485.57,476.67,500.76,475.86,518.65z M458.71,516.96c0-9.12-7.4-16.52-16.52-16.52
	s-16.52,7.4-16.52,16.52s7.4,16.52,16.52,16.52S458.71,526.08,458.71,516.96z"/>
<path class="st1" d="M111.46,531.45c-0.29-0.02-0.53,0.22-0.52,0.51c0.09,5.15,0.53,10.68-0.25,15.83c-0.06,0.4-0.38,0.72-0.79,0.77
	c-4.92,0.64-9.86,0.71-14.81,0.22c-0.4-0.04-0.75-0.3-0.9-0.69c-0.35-0.96-0.53-2.2-0.54-3.73c-0.01-19.33-0.02-38.59-0.03-57.78
	c0-0.44,0.36-0.8,0.81-0.81c6.87-0.08,13.79-0.05,20.76,0.08c6.79,0.13,11.68,0.8,14.67,1.99c13.53,5.38,17.42,23.52,7.97,34.95
	C130.93,531.13,121.96,532.04,111.46,531.45z M110.87,501.72l0.1,14.3c0,0.59,0.48,1.06,1.07,1.05l4.38-0.03
	c5.24-0.03,9.47-3.69,9.44-8.17v-0.2c-0.03-4.48-4.31-8.08-9.56-8.05l-4.38,0.03C111.34,500.66,110.87,501.14,110.87,501.72z"/>
<path class="st1" d="M171.15,533.21l26.08-0.26c0.56-0.01,1.01,0.44,1.01,1l0.07,14.01c0.01,0.43-0.34,0.79-0.77,0.79l-42.88,0.1
	c-0.6,0-1.13-0.41-1.27-0.99c-0.35-1.43-0.52-3.01-0.52-4.75c0.03-18.93,0.02-37.84-0.04-56.74c-0.01-0.31,0.25-0.56,0.56-0.56
	l42.57-0.18c0.87-0.01,1.31,0.43,1.32,1.3l0.09,13c0.01,0.65-0.52,1.18-1.17,1.19l-25.32,0.2c-0.34,0.01-0.51,0.18-0.5,0.52
	l0.15,7.55c0.01,0.26,0.14,0.39,0.4,0.39l22.62-0.28c0.22-0.01,0.4,0.17,0.4,0.39l0.24,13.52c0.01,0.62-0.48,1.12-1.1,1.12l-22,0.03
	c-0.4,0-0.6,0.2-0.6,0.6l0.05,7.46C170.55,533.02,170.75,533.22,171.15,533.21z"/>
<path class="st1" d="M241.04,502.16l0.13,45.52c0,0.61-0.49,1.1-1.09,1.11l-14.6,0.18c-0.58,0.01-1.08-0.38-1.23-0.93
	c-0.36-1.39-0.53-2.95-0.5-4.68c0.18-13.75,0.15-27.49-0.1-41.21c0-0.29-0.23-0.52-0.52-0.52l-16.42-0.03
	c-0.37,0-0.66-0.29-0.67-0.66l-0.23-14.58c-0.01-0.4,0.19-0.6,0.58-0.6l51.39-0.1c0.6,0,1.08,0.49,1.08,1.09v13.75
	c0,0.48-0.38,0.86-0.86,0.87l-16.41,0.23C241.22,501.61,241.03,501.79,241.04,502.16z"/>
<path class="st1" d="M380.54,525.53c0.01-0.59-0.27-0.88-0.85-0.87l-21.98,0.19c-0.17,0-0.31,0.14-0.31,0.31l-0.08,22.13
	c0,1.08-0.54,1.62-1.62,1.61l-14.65-0.1c-0.34,0-0.64-0.19-0.79-0.5c-0.45-0.97-0.68-2.28-0.67-3.94
	c0.07-19.31,0.09-38.57,0.06-57.8c-0.01-0.47,0.38-0.86,0.86-0.86l16.32-0.02c0.22,0,0.39,0.17,0.39,0.38l0.23,23.31
	c0,0.24,0.2,0.44,0.45,0.44l22.14-0.06c0.19,0,0.34-0.15,0.34-0.34l0.1-22.93c0-0.44,0.35-0.79,0.79-0.79l15.77-0.03
	c0.74,0,1.35,0.61,1.34,1.35l-0.06,59.9c0,0.88-0.67,1.61-1.54,1.69c-4.98,0.47-9.95,0.48-14.9,0.02c-0.34-0.03-0.65-0.23-0.81-0.53
	c-0.41-0.75-0.62-1.75-0.63-2.98C380.37,538.43,380.41,531.9,380.54,525.53z"/>
<path class="st1" d="M502.92,532.16c-0.05,5.09,0.51,11.16-0.58,16.1c-0.08,0.37-0.31,0.57-0.7,0.6c-2.81,0.2-6.89,0.2-12.26,0.01
	c-3.46-0.12-3.79-1.76-3.77-4.92c0.13-17.45,0.09-34.89-0.14-52.34c-0.02-1.67,0.06-3.32,0.23-4.94c0.06-0.51,0.49-0.9,1.01-0.91
	c8.37-0.04,16.85,0.05,25.43,0.28c6.78,0.18,12.16,1.46,17.07,6.22c5.36,5.2,7,12.82,5.67,20.11
	c-2.17,11.93-12.45,19.08-24.25,19.15c-2.37,0.01-4.76,0.04-7.15,0.08C503.11,531.6,502.92,531.79,502.92,532.16z M502.85,501.61
	l0.02,14.52c0,0.5,0.41,0.9,0.9,0.9l4.6-0.01c5.01-0.01,9.06-3.46,9.05-7.71v-0.92c-0.01-4.26-4.07-7.7-9.07-7.69l-4.6,0.01
	C503.25,500.71,502.85,501.12,502.85,501.61z"/>
<path class="st0" d="M458.71,516.96c0,9.12-7.4,16.52-16.52,16.52s-16.52-7.4-16.52-16.52s7.4-16.52,16.52-16.52
	S458.71,507.84,458.71,516.96z"/>
<path class="st0" d="M110.87,501.72c0-0.58,0.47-1.06,1.05-1.07l4.38-0.03c5.25-0.03,9.53,3.57,9.56,8.05v0.2
	c0.03,4.48-4.2,8.14-9.44,8.17l-4.38,0.03c-0.59,0.01-1.07-0.46-1.07-1.05L110.87,501.72z"/>
<path class="st0" d="M502.85,501.61c0-0.49,0.4-0.9,0.9-0.9l4.6-0.01c5-0.01,9.06,3.43,9.07,7.69v0.92c0.01,4.25-4.04,7.7-9.05,7.71
	l-4.6,0.01c-0.49,0-0.9-0.4-0.9-0.9L502.85,501.61z"/>
<path class="st1" d="M522.34,570.44c0,3.43-2.78,6.21-6.21,6.21H296.29c-3.43,0-6.21-2.78-6.21-6.21v-0.36
	c0-3.43,2.78-6.21,6.21-6.21h219.84c3.43,0,6.21,2.78,6.21,6.21V570.44z"/>
</svg>
